<?xml version="1.0" encoding="utf-8"?>
<!-- Generator: Adobe Illustrator 25.3.0, SVG Export Plug-In . SVG Version: 6.00 Build 0)  -->
<svg version="1.1" id="Livello_1" xmlns="http://www.w3.org/2000/svg" xmlns:xlink="http://www.w3.org/1999/xlink" x="0px" y="0px"
	 viewBox="0 0 1920 1080" style="enable-background:new 0 0 1920 1080;" xml:space="preserve">
<g>
	<path d="M208.51,236.22c-4.6-2.7-8.25-6.35-10.95-10.95c-2.7-4.6-4.05-9.6-4.05-15s1.35-10.4,4.05-15
		c2.7-4.6,6.35-8.25,10.95-10.95c4.6-2.7,9.6-4.05,15-4.05s10.4,1.35,15,4.05c4.6,2.7,8.25,6.35,10.95,10.95
		c2.7,4.6,4.05,9.6,4.05,15s-1.35,10.4-4.05,15c-2.7,4.6-6.35,8.25-10.95,10.95c-4.6,2.7-9.6,4.05-15,4.05
		S213.11,238.92,208.51,236.22z M208.51,266.22c-4.6-2.7-8.25-6.35-10.95-10.95c-2.7-4.6-4.05-9.6-4.05-15s1.35-10.4,4.05-15
		c2.7-4.6,6.35-8.25,10.95-10.95c4.6-2.7,9.6-4.05,15-4.05s10.4,1.35,15,4.05c4.6,2.7,8.25,6.35,10.95,10.95
		c2.7,4.6,4.05,9.6,4.05,15s-1.35,10.4-4.05,15c-2.7,4.6-6.35,8.25-10.95,10.95c-4.6,2.7-9.6,4.05-15,4.05
		S213.11,268.92,208.51,266.22z M208.51,296.22c-4.6-2.7-8.25-6.35-10.95-10.95c-2.7-4.6-4.05-9.6-4.05-15s1.35-10.4,4.05-15
		c2.7-4.6,6.35-8.25,10.95-10.95c4.6-2.7,9.6-4.05,15-4.05s10.4,1.35,15,4.05c4.6,2.7,8.25,6.35,10.95,10.95
		c2.7,4.6,4.05,9.6,4.05,15s-1.35,10.4-4.05,15c-2.7,4.6-6.35,8.25-10.95,10.95c-4.6,2.7-9.6,4.05-15,4.05
		S213.11,298.92,208.51,296.22z M208.51,326.22c-4.6-2.7-8.25-6.35-10.95-10.95c-2.7-4.6-4.05-9.6-4.05-15s1.35-10.4,4.05-15
		c2.7-4.6,6.35-8.25,10.95-10.95c4.6-2.7,9.6-4.05,15-4.05s10.4,1.35,15,4.05c4.6,2.7,8.25,6.35,10.95,10.95
		c2.7,4.6,4.05,9.6,4.05,15s-1.35,10.4-4.05,15c-2.7,4.6-6.35,8.25-10.95,10.95c-4.6,2.7-9.6,4.05-15,4.05
		S213.11,328.92,208.51,326.22z M208.51,356.22c-4.6-2.7-8.25-6.35-10.95-10.95c-2.7-4.6-4.05-9.6-4.05-15s1.35-10.4,4.05-15
		c2.7-4.6,6.35-8.25,10.95-10.95c4.6-2.7,9.6-4.05,15-4.05s10.4,1.35,15,4.05c4.6,2.7,8.25,6.35,10.95,10.95
		c2.7,4.6,4.05,9.6,4.05,15s-1.35,10.4-4.05,15c-2.7,4.6-6.35,8.25-10.95,10.95c-4.6,2.7-9.6,4.05-15,4.05
		S213.11,358.92,208.51,356.22z M238.51,236.22c-4.6-2.7-8.25-6.35-10.95-10.95c-2.7-4.6-4.05-9.6-4.05-15s1.35-10.4,4.05-15
		c2.7-4.6,6.35-8.25,10.95-10.95c4.6-2.7,9.6-4.05,15-4.05s10.4,1.35,15,4.05c4.6,2.7,8.25,6.35,10.95,10.95
		c2.7,4.6,4.05,9.6,4.05,15s-1.35,10.4-4.05,15c-2.7,4.6-6.35,8.25-10.95,10.95c-4.6,2.7-9.6,4.05-15,4.05
		S243.11,238.92,238.51,236.22z M238.51,296.22c-4.6-2.7-8.25-6.35-10.95-10.95c-2.7-4.6-4.05-9.6-4.05-15s1.35-10.4,4.05-15
		c2.7-4.6,6.35-8.25,10.95-10.95c4.6-2.7,9.6-4.05,15-4.05s10.4,1.35,15,4.05c4.6,2.7,8.25,6.35,10.95,10.95
		c2.7,4.6,4.05,9.6,4.05,15s-1.35,10.4-4.05,15c-2.7,4.6-6.35,8.25-10.95,10.95c-4.6,2.7-9.6,4.05-15,4.05
		S243.11,298.92,238.51,296.22z M238.51,356.22c-4.6-2.7-8.25-6.35-10.95-10.95c-2.7-4.6-4.05-9.6-4.05-15s1.35-10.4,4.05-15
		c2.7-4.6,6.35-8.25,10.95-10.95c4.6-2.7,9.6-4.05,15-4.05s10.4,1.35,15,4.05c4.6,2.7,8.25,6.35,10.95,10.95
		c2.7,4.6,4.05,9.6,4.05,15s-1.35,10.4-4.05,15c-2.7,4.6-6.35,8.25-10.95,10.95c-4.6,2.7-9.6,4.05-15,4.05
		S243.11,358.92,238.51,356.22z M268.51,266.22c-4.6-2.7-8.25-6.35-10.95-10.95c-2.7-4.6-4.05-9.6-4.05-15s1.35-10.4,4.05-15
		c2.7-4.6,6.35-8.25,10.95-10.95c4.6-2.7,9.6-4.05,15-4.05s10.4,1.35,15,4.05c4.6,2.7,8.25,6.35,10.95,10.95
		c2.7,4.6,4.05,9.6,4.05,15s-1.35,10.4-4.05,15c-2.7,4.6-6.35,8.25-10.95,10.95c-4.6,2.7-9.6,4.05-15,4.05
		S273.11,268.92,268.51,266.22z M268.51,326.22c-4.6-2.7-8.25-6.35-10.95-10.95c-2.7-4.6-4.05-9.6-4.05-15s1.35-10.4,4.05-15
		c2.7-4.6,6.35-8.25,10.95-10.95c4.6-2.7,9.6-4.05,15-4.05s10.4,1.35,15,4.05c4.6,2.7,8.25,6.35,10.95,10.95
		c2.7,4.6,4.05,9.6,4.05,15s-1.35,10.4-4.05,15c-2.7,4.6-6.35,8.25-10.95,10.95c-4.6,2.7-9.6,4.05-15,4.05
		S273.11,328.92,268.51,326.22z"/>
	<path d="M328.51,296.22c-4.6-2.7-8.25-6.35-10.95-10.95c-2.7-4.6-4.05-9.6-4.05-15s1.35-10.4,4.05-15
		c2.7-4.6,6.35-8.25,10.95-10.95c4.6-2.7,9.6-4.05,15-4.05s10.4,1.35,15,4.05c4.6,2.7,8.25,6.35,10.95,10.95
		c2.7,4.6,4.05,9.6,4.05,15s-1.35,10.4-4.05,15c-2.7,4.6-6.35,8.25-10.95,10.95c-4.6,2.7-9.6,4.05-15,4.05
		S333.11,298.92,328.51,296.22z M328.51,326.22c-4.6-2.7-8.25-6.35-10.95-10.95c-2.7-4.6-4.05-9.6-4.05-15s1.35-10.4,4.05-15
		c2.7-4.6,6.35-8.25,10.95-10.95c4.6-2.7,9.6-4.05,15-4.05s10.4,1.35,15,4.05c4.6,2.7,8.25,6.35,10.95,10.95
		c2.7,4.6,4.05,9.6,4.05,15s-1.35,10.4-4.05,15c-2.7,4.6-6.35,8.25-10.95,10.95c-4.6,2.7-9.6,4.05-15,4.05
		S333.11,328.92,328.51,326.22z M358.51,266.22c-4.6-2.7-8.25-6.35-10.95-10.95c-2.7-4.6-4.05-9.6-4.05-15s1.35-10.4,4.05-15
		c2.7-4.6,6.35-8.25,10.95-10.95c4.6-2.7,9.6-4.05,15-4.05s10.4,1.35,15,4.05c4.6,2.7,8.25,6.35,10.95,10.95
		c2.7,4.6,4.05,9.6,4.05,15s-1.35,10.4-4.05,15c-2.7,4.6-6.35,8.25-10.95,10.95c-4.6,2.7-9.6,4.05-15,4.05
		S363.11,268.92,358.51,266.22z M358.51,356.22c-4.6-2.7-8.25-6.35-10.95-10.95c-2.7-4.6-4.05-9.6-4.05-15s1.35-10.4,4.05-15
		c2.7-4.6,6.35-8.25,10.95-10.95c4.6-2.7,9.6-4.05,15-4.05s10.4,1.35,15,4.05c4.6,2.7,8.25,6.35,10.95,10.95
		c2.7,4.6,4.05,9.6,4.05,15s-1.35,10.4-4.05,15c-2.7,4.6-6.35,8.25-10.95,10.95c-4.6,2.7-9.6,4.05-15,4.05
		S363.11,358.92,358.51,356.22z M388.51,296.22c-4.6-2.7-8.25-6.35-10.95-10.95c-2.7-4.6-4.05-9.6-4.05-15s1.35-10.4,4.05-15
		c2.7-4.6,6.35-8.25,10.95-10.95c4.6-2.7,9.6-4.05,15-4.05s10.4,1.35,15,4.05c4.6,2.7,8.25,6.35,10.95,10.95
		c2.7,4.6,4.05,9.6,4.05,15s-1.35,10.4-4.05,15c-2.7,4.6-6.35,8.25-10.95,10.95c-4.6,2.7-9.6,4.05-15,4.05
		S393.11,298.92,388.51,296.22z M388.51,326.22c-4.6-2.7-8.25-6.35-10.95-10.95c-2.7-4.6-4.05-9.6-4.05-15s1.35-10.4,4.05-15
		c2.7-4.6,6.35-8.25,10.95-10.95c4.6-2.7,9.6-4.05,15-4.05s10.4,1.35,15,4.05c4.6,2.7,8.25,6.35,10.95,10.95
		c2.7,4.6,4.05,9.6,4.05,15s-1.35,10.4-4.05,15c-2.7,4.6-6.35,8.25-10.95,10.95c-4.6,2.7-9.6,4.05-15,4.05
		S393.11,328.92,388.51,326.22z"/>
	<path d="M448.5,296.22c-4.6-2.7-8.25-6.35-10.95-10.95c-2.7-4.6-4.05-9.6-4.05-15s1.35-10.4,4.05-15c2.7-4.6,6.35-8.25,10.95-10.95
		c4.6-2.7,9.6-4.05,15-4.05s10.4,1.35,15,4.05c4.6,2.7,8.25,6.35,10.95,10.95c2.7,4.6,4.05,9.6,4.05,15s-1.35,10.4-4.05,15
		c-2.7,4.6-6.35,8.25-10.95,10.95c-4.6,2.7-9.6,4.05-15,4.05S453.1,298.92,448.5,296.22z M448.5,326.22
		c-4.6-2.7-8.25-6.35-10.95-10.95c-2.7-4.6-4.05-9.6-4.05-15s1.35-10.4,4.05-15c2.7-4.6,6.35-8.25,10.95-10.95
		c4.6-2.7,9.6-4.05,15-4.05s10.4,1.35,15,4.05c4.6,2.7,8.25,6.35,10.95,10.95c2.7,4.6,4.05,9.6,4.05,15s-1.35,10.4-4.05,15
		c-2.7,4.6-6.35,8.25-10.95,10.95c-4.6,2.7-9.6,4.05-15,4.05S453.1,328.92,448.5,326.22z M478.5,266.22
		c-4.6-2.7-8.25-6.35-10.95-10.95c-2.7-4.6-4.05-9.6-4.05-15s1.35-10.4,4.05-15c2.7-4.6,6.35-8.25,10.95-10.95
		c4.6-2.7,9.6-4.05,15-4.05s10.4,1.35,15,4.05c4.6,2.7,8.25,6.35,10.95,10.95c2.7,4.6,4.05,9.6,4.05,15s-1.35,10.4-4.05,15
		c-2.7,4.6-6.35,8.25-10.95,10.95c-4.6,2.7-9.6,4.05-15,4.05S483.1,268.92,478.5,266.22z M478.5,356.22
		c-4.6-2.7-8.25-6.35-10.95-10.95c-2.7-4.6-4.05-9.6-4.05-15s1.35-10.4,4.05-15c2.7-4.6,6.35-8.25,10.95-10.95
		c4.6-2.7,9.6-4.05,15-4.05s10.4,1.35,15,4.05c4.6,2.7,8.25,6.35,10.95,10.95c2.7,4.6,4.05,9.6,4.05,15s-1.35,10.4-4.05,15
		c-2.7,4.6-6.35,8.25-10.95,10.95c-4.6,2.7-9.6,4.05-15,4.05S483.1,358.92,478.5,356.22z M508.5,296.22
		c-4.6-2.7-8.25-6.35-10.95-10.95c-2.7-4.6-4.05-9.6-4.05-15s1.35-10.4,4.05-15c2.7-4.6,6.35-8.25,10.95-10.95
		c4.6-2.7,9.6-4.05,15-4.05s10.4,1.35,15,4.05c4.6,2.7,8.25,6.35,10.95,10.95c2.7,4.6,4.05,9.6,4.05,15s-1.35,10.4-4.05,15
		c-2.7,4.6-6.35,8.25-10.95,10.95c-4.6,2.7-9.6,4.05-15,4.05S513.1,298.92,508.5,296.22z M508.5,326.22
		c-4.6-2.7-8.25-6.35-10.95-10.95c-2.7-4.6-4.05-9.6-4.05-15s1.35-10.4,4.05-15c2.7-4.6,6.35-8.25,10.95-10.95
		c4.6-2.7,9.6-4.05,15-4.05s10.4,1.35,15,4.05c4.6,2.7,8.25,6.35,10.95,10.95c2.7,4.6,4.05,9.6,4.05,15s-1.35,10.4-4.05,15
		c-2.7,4.6-6.35,8.25-10.95,10.95c-4.6,2.7-9.6,4.05-15,4.05S513.1,328.92,508.5,326.22z"/>
	<path d="M568.5,236.22c-4.6-2.7-8.25-6.35-10.95-10.95c-2.7-4.6-4.05-9.6-4.05-15s1.35-10.4,4.05-15c2.7-4.6,6.35-8.25,10.95-10.95
		c4.6-2.7,9.6-4.05,15-4.05s10.4,1.35,15,4.05c4.6,2.7,8.25,6.35,10.95,10.95c2.7,4.6,4.05,9.6,4.05,15s-1.35,10.4-4.05,15
		c-2.7,4.6-6.35,8.25-10.95,10.95c-4.6,2.7-9.6,4.05-15,4.05S573.1,238.92,568.5,236.22z M568.5,266.22
		c-4.6-2.7-8.25-6.35-10.95-10.95c-2.7-4.6-4.05-9.6-4.05-15s1.35-10.4,4.05-15c2.7-4.6,6.35-8.25,10.95-10.95
		c4.6-2.7,9.6-4.05,15-4.05s10.4,1.35,15,4.05c4.6,2.7,8.25,6.35,10.95,10.95c2.7,4.6,4.05,9.6,4.05,15s-1.35,10.4-4.05,15
		c-2.7,4.6-6.35,8.25-10.95,10.95c-4.6,2.7-9.6,4.05-15,4.05S573.1,268.92,568.5,266.22z M568.5,296.22
		c-4.6-2.7-8.25-6.35-10.95-10.95c-2.7-4.6-4.05-9.6-4.05-15s1.35-10.4,4.05-15c2.7-4.6,6.35-8.25,10.95-10.95
		c4.6-2.7,9.6-4.05,15-4.05s10.4,1.35,15,4.05c4.6,2.7,8.25,6.35,10.95,10.95c2.7,4.6,4.05,9.6,4.05,15s-1.35,10.4-4.05,15
		c-2.7,4.6-6.35,8.25-10.95,10.95c-4.6,2.7-9.6,4.05-15,4.05S573.1,298.92,568.5,296.22z M568.5,326.22
		c-4.6-2.7-8.25-6.35-10.95-10.95c-2.7-4.6-4.05-9.6-4.05-15s1.35-10.4,4.05-15c2.7-4.6,6.35-8.25,10.95-10.95
		c4.6-2.7,9.6-4.05,15-4.05s10.4,1.35,15,4.05c4.6,2.7,8.25,6.35,10.95,10.95c2.7,4.6,4.05,9.6,4.05,15s-1.35,10.4-4.05,15
		c-2.7,4.6-6.35,8.25-10.95,10.95c-4.6,2.7-9.6,4.05-15,4.05S573.1,328.92,568.5,326.22z M568.5,356.22
		c-4.6-2.7-8.25-6.35-10.95-10.95c-2.7-4.6-4.05-9.6-4.05-15s1.35-10.4,4.05-15c2.7-4.6,6.35-8.25,10.95-10.95
		c4.6-2.7,9.6-4.05,15-4.05s10.4,1.35,15,4.05c4.6,2.7,8.25,6.35,10.95,10.95c2.7,4.6,4.05,9.6,4.05,15s-1.35,10.4-4.05,15
		c-2.7,4.6-6.35,8.25-10.95,10.95c-4.6,2.7-9.6,4.05-15,4.05S573.1,358.92,568.5,356.22z"/>
	<path d="M628.5,236.22c-4.6-2.7-8.25-6.35-10.95-10.95c-2.7-4.6-4.05-9.6-4.05-15s1.35-10.4,4.05-15c2.7-4.6,6.35-8.25,10.95-10.95
		c4.6-2.7,9.6-4.05,15-4.05s10.4,1.35,15,4.05c4.6,2.7,8.25,6.35,10.95,10.95c2.7,4.6,4.05,9.6,4.05,15s-1.35,10.4-4.05,15
		c-2.7,4.6-6.35,8.25-10.95,10.95c-4.6,2.7-9.6,4.05-15,4.05S633.1,238.92,628.5,236.22z M628.5,266.22
		c-4.6-2.7-8.25-6.35-10.95-10.95c-2.7-4.6-4.05-9.6-4.05-15s1.35-10.4,4.05-15c2.7-4.6,6.35-8.25,10.95-10.95
		c4.6-2.7,9.6-4.05,15-4.05s10.4,1.35,15,4.05c4.6,2.7,8.25,6.35,10.95,10.95c2.7,4.6,4.05,9.6,4.05,15s-1.35,10.4-4.05,15
		c-2.7,4.6-6.35,8.25-10.95,10.95c-4.6,2.7-9.6,4.05-15,4.05S633.1,268.92,628.5,266.22z M628.5,296.22
		c-4.6-2.7-8.25-6.35-10.95-10.95c-2.7-4.6-4.05-9.6-4.05-15s1.35-10.4,4.05-15c2.7-4.6,6.35-8.25,10.95-10.95
		c4.6-2.7,9.6-4.05,15-4.05s10.4,1.35,15,4.05c4.6,2.7,8.25,6.35,10.95,10.95c2.7,4.6,4.05,9.6,4.05,15s-1.35,10.4-4.05,15
		c-2.7,4.6-6.35,8.25-10.95,10.95c-4.6,2.7-9.6,4.05-15,4.05S633.1,298.92,628.5,296.22z M628.5,326.22
		c-4.6-2.7-8.25-6.35-10.95-10.95c-2.7-4.6-4.05-9.6-4.05-15s1.35-10.4,4.05-15c2.7-4.6,6.35-8.25,10.95-10.95
		c4.6-2.7,9.6-4.05,15-4.05s10.4,1.35,15,4.05c4.6,2.7,8.25,6.35,10.95,10.95c2.7,4.6,4.05,9.6,4.05,15s-1.35,10.4-4.05,15
		c-2.7,4.6-6.35,8.25-10.95,10.95c-4.6,2.7-9.6,4.05-15,4.05S633.1,328.92,628.5,326.22z M628.5,356.22
		c-4.6-2.7-8.25-6.35-10.95-10.95c-2.7-4.6-4.05-9.6-4.05-15s1.35-10.4,4.05-15c2.7-4.6,6.35-8.25,10.95-10.95
		c4.6-2.7,9.6-4.05,15-4.05s10.4,1.35,15,4.05c4.6,2.7,8.25,6.35,10.95,10.95c2.7,4.6,4.05,9.6,4.05,15s-1.35,10.4-4.05,15
		c-2.7,4.6-6.35,8.25-10.95,10.95c-4.6,2.7-9.6,4.05-15,4.05S633.1,358.92,628.5,356.22z M658.5,236.22
		c-4.6-2.7-8.25-6.35-10.95-10.95c-2.7-4.6-4.05-9.6-4.05-15s1.35-10.4,4.05-15c2.7-4.6,6.35-8.25,10.95-10.95
		c4.6-2.7,9.6-4.05,15-4.05s10.4,1.35,15,4.05c4.6,2.7,8.25,6.35,10.95,10.95c2.7,4.6,4.05,9.6,4.05,15s-1.35,10.4-4.05,15
		c-2.7,4.6-6.35,8.25-10.95,10.95c-4.6,2.7-9.6,4.05-15,4.05S663.1,238.92,658.5,236.22z M658.5,296.22
		c-4.6-2.7-8.25-6.35-10.95-10.95c-2.7-4.6-4.05-9.6-4.05-15s1.35-10.4,4.05-15c2.7-4.6,6.35-8.25,10.95-10.95
		c4.6-2.7,9.6-4.05,15-4.05s10.4,1.35,15,4.05c4.6,2.7,8.25,6.35,10.95,10.95c2.7,4.6,4.05,9.6,4.05,15s-1.35,10.4-4.05,15
		c-2.7,4.6-6.35,8.25-10.95,10.95c-4.6,2.7-9.6,4.05-15,4.05S663.1,298.92,658.5,296.22z M658.5,356.22
		c-4.6-2.7-8.25-6.35-10.95-10.95c-2.7-4.6-4.05-9.6-4.05-15s1.35-10.4,4.05-15c2.7-4.6,6.35-8.25,10.95-10.95
		c4.6-2.7,9.6-4.05,15-4.05s10.4,1.35,15,4.05c4.6,2.7,8.25,6.35,10.95,10.95c2.7,4.6,4.05,9.6,4.05,15s-1.35,10.4-4.05,15
		c-2.7,4.6-6.35,8.25-10.95,10.95c-4.6,2.7-9.6,4.05-15,4.05S663.1,358.92,658.5,356.22z M688.5,266.22
		c-4.6-2.7-8.25-6.35-10.95-10.95c-2.7-4.6-4.05-9.6-4.05-15s1.35-10.4,4.05-15c2.7-4.6,6.35-8.25,10.95-10.95
		c4.6-2.7,9.6-4.05,15-4.05s10.4,1.35,15,4.05c4.6,2.7,8.25,6.35,10.95,10.95c2.7,4.6,4.05,9.6,4.05,15s-1.35,10.4-4.05,15
		c-2.7,4.6-6.35,8.25-10.95,10.95c-4.6,2.7-9.6,4.05-15,4.05S693.1,268.92,688.5,266.22z M688.5,326.22
		c-4.6-2.7-8.25-6.35-10.95-10.95c-2.7-4.6-4.05-9.6-4.05-15s1.35-10.4,4.05-15c2.7-4.6,6.35-8.25,10.95-10.95
		c4.6-2.7,9.6-4.05,15-4.05s10.4,1.35,15,4.05c4.6,2.7,8.25,6.35,10.95,10.95c2.7,4.6,4.05,9.6,4.05,15s-1.35,10.4-4.05,15
		c-2.7,4.6-6.35,8.25-10.95,10.95c-4.6,2.7-9.6,4.05-15,4.05S693.1,328.92,688.5,326.22z"/>
	<path d="M748.5,236.22c-4.6-2.7-8.25-6.35-10.95-10.95c-2.7-4.6-4.05-9.6-4.05-15s1.35-10.4,4.05-15c2.7-4.6,6.35-8.25,10.95-10.95
		c4.6-2.7,9.6-4.05,15-4.05s10.4,1.35,15,4.05c4.6,2.7,8.25,6.35,10.95,10.95c2.7,4.6,4.05,9.6,4.05,15s-1.35,10.4-4.05,15
		c-2.7,4.6-6.35,8.25-10.95,10.95c-4.6,2.7-9.6,4.05-15,4.05S753.1,238.92,748.5,236.22z M748.5,266.22
		c-4.6-2.7-8.25-6.35-10.95-10.95c-2.7-4.6-4.05-9.6-4.05-15s1.35-10.4,4.05-15c2.7-4.6,6.35-8.25,10.95-10.95
		c4.6-2.7,9.6-4.05,15-4.05s10.4,1.35,15,4.05c4.6,2.7,8.25,6.35,10.95,10.95c2.7,4.6,4.05,9.6,4.05,15s-1.35,10.4-4.05,15
		c-2.7,4.6-6.35,8.25-10.95,10.95c-4.6,2.7-9.6,4.05-15,4.05S753.1,268.92,748.5,266.22z M748.5,296.22
		c-4.6-2.7-8.25-6.35-10.95-10.95c-2.7-4.6-4.05-9.6-4.05-15s1.35-10.4,4.05-15c2.7-4.6,6.35-8.25,10.95-10.95
		c4.6-2.7,9.6-4.05,15-4.05s10.4,1.35,15,4.05c4.6,2.7,8.25,6.35,10.95,10.95c2.7,4.6,4.05,9.6,4.05,15s-1.35,10.4-4.05,15
		c-2.7,4.6-6.35,8.25-10.95,10.95c-4.6,2.7-9.6,4.05-15,4.05S753.1,298.92,748.5,296.22z M748.5,326.22
		c-4.6-2.7-8.25-6.35-10.95-10.95c-2.7-4.6-4.05-9.6-4.05-15s1.35-10.4,4.05-15c2.7-4.6,6.35-8.25,10.95-10.95
		c4.6-2.7,9.6-4.05,15-4.05s10.4,1.35,15,4.05c4.6,2.7,8.25,6.35,10.95,10.95c2.7,4.6,4.05,9.6,4.05,15s-1.35,10.4-4.05,15
		c-2.7,4.6-6.35,8.25-10.95,10.95c-4.6,2.7-9.6,4.05-15,4.05S753.1,328.92,748.5,326.22z M748.5,356.22
		c-4.6-2.7-8.25-6.35-10.95-10.95c-2.7-4.6-4.05-9.6-4.05-15s1.35-10.4,4.05-15c2.7-4.6,6.35-8.25,10.95-10.95
		c4.6-2.7,9.6-4.05,15-4.05s10.4,1.35,15,4.05c4.6,2.7,8.25,6.35,10.95,10.95c2.7,4.6,4.05,9.6,4.05,15s-1.35,10.4-4.05,15
		c-2.7,4.6-6.35,8.25-10.95,10.95c-4.6,2.7-9.6,4.05-15,4.05S753.1,358.92,748.5,356.22z M778.5,356.22
		c-4.6-2.7-8.25-6.35-10.95-10.95c-2.7-4.6-4.05-9.6-4.05-15s1.35-10.4,4.05-15c2.7-4.6,6.35-8.25,10.95-10.95
		c4.6-2.7,9.6-4.05,15-4.05s10.4,1.35,15,4.05c4.6,2.7,8.25,6.35,10.95,10.95c2.7,4.6,4.05,9.6,4.05,15s-1.35,10.4-4.05,15
		c-2.7,4.6-6.35,8.25-10.95,10.95c-4.6,2.7-9.6,4.05-15,4.05S783.1,358.92,778.5,356.22z"/>
	<path d="M838.5,266.22c-4.6-2.7-8.25-6.35-10.95-10.95c-2.7-4.6-4.05-9.6-4.05-15s1.35-10.4,4.05-15c2.7-4.6,6.35-8.25,10.95-10.95
		c4.6-2.7,9.6-4.05,15-4.05s10.4,1.35,15,4.05c4.6,2.7,8.25,6.35,10.95,10.95c2.7,4.6,4.05,9.6,4.05,15s-1.35,10.4-4.05,15
		c-2.7,4.6-6.35,8.25-10.95,10.95c-4.6,2.7-9.6,4.05-15,4.05S843.1,268.92,838.5,266.22z M838.5,296.22
		c-4.6-2.7-8.25-6.35-10.95-10.95c-2.7-4.6-4.05-9.6-4.05-15s1.35-10.4,4.05-15c2.7-4.6,6.35-8.25,10.95-10.95
		c4.6-2.7,9.6-4.05,15-4.05s10.4,1.35,15,4.05c4.6,2.7,8.25,6.35,10.95,10.95c2.7,4.6,4.05,9.6,4.05,15s-1.35,10.4-4.05,15
		c-2.7,4.6-6.35,8.25-10.95,10.95c-4.6,2.7-9.6,4.05-15,4.05S843.1,298.92,838.5,296.22z M838.5,326.22
		c-4.6-2.7-8.25-6.35-10.95-10.95c-2.7-4.6-4.05-9.6-4.05-15s1.35-10.4,4.05-15c2.7-4.6,6.35-8.25,10.95-10.95
		c4.6-2.7,9.6-4.05,15-4.05s10.4,1.35,15,4.05c4.6,2.7,8.25,6.35,10.95,10.95c2.7,4.6,4.05,9.6,4.05,15s-1.35,10.4-4.05,15
		c-2.7,4.6-6.35,8.25-10.95,10.95c-4.6,2.7-9.6,4.05-15,4.05S843.1,328.92,838.5,326.22z M868.5,236.22
		c-4.6-2.7-8.25-6.35-10.95-10.95c-2.7-4.6-4.05-9.6-4.05-15s1.35-10.4,4.05-15c2.7-4.6,6.35-8.25,10.95-10.95
		c4.6-2.7,9.6-4.05,15-4.05s10.4,1.35,15,4.05c4.6,2.7,8.25,6.35,10.95,10.95c2.7,4.6,4.05,9.6,4.05,15s-1.35,10.4-4.05,15
		c-2.7,4.6-6.35,8.25-10.95,10.95c-4.6,2.7-9.6,4.05-15,4.05S873.1,238.92,868.5,236.22z M868.5,356.22
		c-4.6-2.7-8.25-6.35-10.95-10.95c-2.7-4.6-4.05-9.6-4.05-15s1.35-10.4,4.05-15c2.7-4.6,6.35-8.25,10.95-10.95
		c4.6-2.7,9.6-4.05,15-4.05s10.4,1.35,15,4.05c4.6,2.7,8.25,6.35,10.95,10.95c2.7,4.6,4.05,9.6,4.05,15s-1.35,10.4-4.05,15
		c-2.7,4.6-6.35,8.25-10.95,10.95c-4.6,2.7-9.6,4.05-15,4.05S873.1,358.92,868.5,356.22z M898.5,266.22
		c-4.6-2.7-8.25-6.35-10.95-10.95c-2.7-4.6-4.05-9.6-4.05-15s1.35-10.4,4.05-15c2.7-4.6,6.35-8.25,10.95-10.95
		c4.6-2.7,9.6-4.05,15-4.05s10.4,1.35,15,4.05c4.6,2.7,8.25,6.35,10.95,10.95c2.7,4.6,4.05,9.6,4.05,15s-1.35,10.4-4.05,15
		c-2.7,4.6-6.35,8.25-10.95,10.95c-4.6,2.7-9.6,4.05-15,4.05S903.1,268.92,898.5,266.22z M898.5,296.22
		c-4.6-2.7-8.25-6.35-10.95-10.95c-2.7-4.6-4.05-9.6-4.05-15s1.35-10.4,4.05-15c2.7-4.6,6.35-8.25,10.95-10.95
		c4.6-2.7,9.6-4.05,15-4.05s10.4,1.35,15,4.05c4.6,2.7,8.25,6.35,10.95,10.95c2.7,4.6,4.05,9.6,4.05,15s-1.35,10.4-4.05,15
		c-2.7,4.6-6.35,8.25-10.95,10.95c-4.6,2.7-9.6,4.05-15,4.05S903.1,298.92,898.5,296.22z M898.5,326.22
		c-4.6-2.7-8.25-6.35-10.95-10.95c-2.7-4.6-4.05-9.6-4.05-15s1.35-10.4,4.05-15c2.7-4.6,6.35-8.25,10.95-10.95
		c4.6-2.7,9.6-4.05,15-4.05s10.4,1.35,15,4.05c4.6,2.7,8.25,6.35,10.95,10.95c2.7,4.6,4.05,9.6,4.05,15s-1.35,10.4-4.05,15
		c-2.7,4.6-6.35,8.25-10.95,10.95c-4.6,2.7-9.6,4.05-15,4.05S903.1,328.92,898.5,326.22z"/>
	<path d="M958.49,266.22c-4.6-2.7-8.25-6.35-10.95-10.95c-2.7-4.6-4.05-9.6-4.05-15s1.35-10.4,4.05-15
		c2.7-4.6,6.35-8.25,10.95-10.95c4.6-2.7,9.6-4.05,15-4.05c5.4,0,10.4,1.35,15,4.05c4.6,2.7,8.25,6.35,10.95,10.95
		c2.7,4.6,4.05,9.6,4.05,15s-1.35,10.4-4.05,15c-2.7,4.6-6.35,8.25-10.95,10.95c-4.6,2.7-9.6,4.05-15,4.05
		C968.09,270.27,963.09,268.92,958.49,266.22z M958.49,296.22c-4.6-2.7-8.25-6.35-10.95-10.95c-2.7-4.6-4.05-9.6-4.05-15
		s1.35-10.4,4.05-15c2.7-4.6,6.35-8.25,10.95-10.95c4.6-2.7,9.6-4.05,15-4.05c5.4,0,10.4,1.35,15,4.05
		c4.6,2.7,8.25,6.35,10.95,10.95c2.7,4.6,4.05,9.6,4.05,15s-1.35,10.4-4.05,15c-2.7,4.6-6.35,8.25-10.95,10.95
		c-4.6,2.7-9.6,4.05-15,4.05C968.09,300.27,963.09,298.92,958.49,296.22z M958.49,326.22c-4.6-2.7-8.25-6.35-10.95-10.95
		c-2.7-4.6-4.05-9.6-4.05-15s1.35-10.4,4.05-15c2.7-4.6,6.35-8.25,10.95-10.95c4.6-2.7,9.6-4.05,15-4.05c5.4,0,10.4,1.35,15,4.05
		c4.6,2.7,8.25,6.35,10.95,10.95c2.7,4.6,4.05,9.6,4.05,15s-1.35,10.4-4.05,15c-2.7,4.6-6.35,8.25-10.95,10.95
		c-4.6,2.7-9.6,4.05-15,4.05C968.09,330.27,963.09,328.92,958.49,326.22z M988.49,236.22c-4.6-2.7-8.25-6.35-10.95-10.95
		c-2.7-4.6-4.05-9.6-4.05-15s1.35-10.4,4.05-15c2.7-4.6,6.35-8.25,10.95-10.95c4.6-2.7,9.6-4.05,15-4.05c5.4,0,10.4,1.35,15,4.05
		c4.6,2.7,8.25,6.35,10.95,10.95c2.7,4.6,4.05,9.6,4.05,15s-1.35,10.4-4.05,15c-2.7,4.6-6.35,8.25-10.95,10.95
		c-4.6,2.7-9.6,4.05-15,4.05C998.09,240.27,993.09,238.92,988.49,236.22z M988.49,356.22c-4.6-2.7-8.25-6.35-10.95-10.95
		c-2.7-4.6-4.05-9.6-4.05-15s1.35-10.4,4.05-15c2.7-4.6,6.35-8.25,10.95-10.95c4.6-2.7,9.6-4.05,15-4.05c5.4,0,10.4,1.35,15,4.05
		c4.6,2.7,8.25,6.35,10.95,10.95c2.7,4.6,4.05,9.6,4.05,15s-1.35,10.4-4.05,15c-2.7,4.6-6.35,8.25-10.95,10.95
		c-4.6,2.7-9.6,4.05-15,4.05C998.09,360.27,993.09,358.92,988.49,356.22z M1018.49,236.22c-4.6-2.7-8.25-6.35-10.95-10.95
		c-2.7-4.6-4.05-9.6-4.05-15s1.35-10.4,4.05-15c2.7-4.6,6.35-8.25,10.95-10.95c4.6-2.7,9.6-4.05,15-4.05c5.4,0,10.4,1.35,15,4.05
		c4.6,2.7,8.25,6.35,10.95,10.95c2.7,4.6,4.05,9.6,4.05,15s-1.35,10.4-4.05,15c-2.7,4.6-6.35,8.25-10.95,10.95
		c-4.6,2.7-9.6,4.05-15,4.05C1028.09,240.27,1023.09,238.92,1018.49,236.22z M1018.49,296.22c-4.6-2.7-8.25-6.35-10.95-10.95
		c-2.7-4.6-4.05-9.6-4.05-15s1.35-10.4,4.05-15c2.7-4.6,6.35-8.25,10.95-10.95c4.6-2.7,9.6-4.05,15-4.05c5.4,0,10.4,1.35,15,4.05
		c4.6,2.7,8.25,6.35,10.95,10.95c2.7,4.6,4.05,9.6,4.05,15s-1.35,10.4-4.05,15c-2.7,4.6-6.35,8.25-10.95,10.95
		c-4.6,2.7-9.6,4.05-15,4.05C1028.09,300.27,1023.09,298.92,1018.49,296.22z M1018.49,326.22c-4.6-2.7-8.25-6.35-10.95-10.95
		c-2.7-4.6-4.05-9.6-4.05-15s1.35-10.4,4.05-15c2.7-4.6,6.35-8.25,10.95-10.95c4.6-2.7,9.6-4.05,15-4.05c5.4,0,10.4,1.35,15,4.05
		c4.6,2.7,8.25,6.35,10.95,10.95c2.7,4.6,4.05,9.6,4.05,15s-1.35,10.4-4.05,15c-2.7,4.6-6.35,8.25-10.95,10.95
		c-4.6,2.7-9.6,4.05-15,4.05C1028.09,330.27,1023.09,328.92,1018.49,326.22z M1018.49,356.22c-4.6-2.7-8.25-6.35-10.95-10.95
		c-2.7-4.6-4.05-9.6-4.05-15s1.35-10.4,4.05-15c2.7-4.6,6.35-8.25,10.95-10.95c4.6-2.7,9.6-4.05,15-4.05c5.4,0,10.4,1.35,15,4.05
		c4.6,2.7,8.25,6.35,10.95,10.95c2.7,4.6,4.05,9.6,4.05,15s-1.35,10.4-4.05,15c-2.7,4.6-6.35,8.25-10.95,10.95
		c-4.6,2.7-9.6,4.05-15,4.05C1028.09,360.27,1023.09,358.92,1018.49,356.22z"/>
</g>
</svg>
